<svg width="172" height="55" viewBox="0 0 172 55" fill="none" xmlns="http://www.w3.org/2000/svg">
<rect x="12.1377" width="14.106" height="45.2704" fill="#3B5219"/>
<rect x="28.2122" y="5.69116" width="7.3271" height="45.2704" transform="rotate(-27.0759 28.2122 5.69116)" fill="#7B8D3B"/>
<rect width="10.1694" height="45.2704" fill="#0E2310"/>
<path d="M94.3594 36.9668L94.0957 45H73.002V43.084H74.5137C75.1348 43.084 75.5977 42.9258 75.9023 42.6094C76.207 42.2812 76.3594 41.6602 76.3594 40.7461V23.5371C76.3594 22.623 76.207 22.0078 75.9023 21.6914C75.5977 21.3633 75.1348 21.1992 74.5137 21.1992H73.002V19.3008H85.4297V21.1992H83.918C83.332 21.1992 82.875 21.3516 82.5469 21.6562C82.2305 21.9492 82.0723 22.5293 82.0723 23.3965V42.8027H88.7695C89.6133 42.8027 90.2695 42.5391 90.7383 42.0117C91.207 41.4727 91.5469 40.6934 91.7578 39.6738L92.3379 36.9668H94.3594ZM98.6484 19.8633C98.6484 18.9727 98.9355 18.3223 99.5098 17.9121C100.096 17.4902 100.828 17.2793 101.707 17.2793C102.562 17.2793 103.289 17.4902 103.887 17.9121C104.496 18.3223 104.801 18.9727 104.801 19.8633C104.801 20.7305 104.496 21.3809 103.887 21.8145C103.277 22.248 102.551 22.4648 101.707 22.4648C100.828 22.4648 100.096 22.248 99.5098 21.8145C98.9355 21.3809 98.6484 20.7305 98.6484 19.8633ZM96.1699 45V43.084H96.5918C97.248 43.084 97.8398 42.9258 98.3672 42.6094C98.8945 42.293 99.1582 41.6719 99.1582 40.7461V29.8125C99.1582 28.9336 98.8887 28.3477 98.3496 28.0547C97.8105 27.7617 97.2246 27.6152 96.5918 27.6152H96.1699V25.6992H104.625V40.7461C104.625 41.6719 104.889 42.293 105.416 42.6094C105.955 42.9258 106.547 43.084 107.191 43.084H107.613V45H96.1699ZM129.92 35.2793C129.92 37.0254 129.756 38.5312 129.428 39.7969C129.111 41.0508 128.643 42.0938 128.021 42.9258C126.803 44.543 124.975 45.3516 122.537 45.3516C121.225 45.3516 120.117 45.0703 119.215 44.5078C118.312 43.9453 117.586 43.1719 117.035 42.1875H116.701L115.699 45H108.861V43.084H109.107C109.893 43.084 110.543 42.9199 111.059 42.5918C111.586 42.252 111.85 41.5781 111.85 40.5703V21.9551C111.85 20.9824 111.58 20.3379 111.041 20.0215C110.514 19.7051 109.834 19.5469 109.002 19.5469H108.861V17.6484H117.316V23.8008C117.316 24.1758 117.299 24.6152 117.264 25.1191C117.24 25.623 117.211 26.0977 117.176 26.543C117.152 26.8008 117.129 27.0703 117.105 27.3516C117.082 27.6211 117.059 27.8906 117.035 28.1602H117.281C117.797 27.2695 118.482 26.5664 119.338 26.0508C120.205 25.5352 121.318 25.2773 122.678 25.2773C125.057 25.2773 126.85 26.0742 128.057 27.668C129.299 29.3203 129.92 31.8574 129.92 35.2793ZM120.99 27.9316C119.619 27.9316 118.652 28.5352 118.09 29.7422C117.809 30.3516 117.609 31.1191 117.492 32.0449C117.375 32.959 117.316 34.0371 117.316 35.2793C117.316 36.4629 117.375 37.5176 117.492 38.4434C117.609 39.3574 117.809 40.125 118.09 40.7461C118.652 42.0234 119.631 42.6621 121.025 42.6621C122.209 42.6621 123.064 42.0234 123.592 40.7461C124.119 39.457 124.383 37.623 124.383 35.2441C124.383 32.7832 124.119 30.9492 123.592 29.7422C123.064 28.5352 122.197 27.9316 120.99 27.9316ZM143.209 43.084H144.369V45H132.346V43.084H132.451C133.354 43.084 134.039 42.9199 134.508 42.5918C134.988 42.252 135.229 41.5547 135.229 40.5V30.0586C135.229 29.0508 135.006 28.3945 134.561 28.0898C134.127 27.7734 133.482 27.6152 132.627 27.6152H132.521V25.6992H139.799L140.52 28.5117H140.695C141.188 27.375 141.803 26.5547 142.541 26.0508C143.279 25.5352 144.357 25.2773 145.775 25.2773C148.529 25.2773 149.906 26.25 149.906 28.1953C149.906 29.2969 149.508 30.1523 148.711 30.7617C147.914 31.3711 146.789 31.6758 145.336 31.6758C145.336 30.75 145.225 30.0234 145.002 29.4961C144.779 28.957 144.305 28.6875 143.578 28.6875C142.969 28.6875 142.471 28.916 142.084 29.373C141.697 29.8184 141.404 30.3457 141.205 30.9551C141.064 31.377 140.959 31.7988 140.889 32.2207C140.807 32.6543 140.754 33.0645 140.73 33.4512C140.707 33.8379 140.695 34.1719 140.695 34.4531V40.6758C140.695 41.6719 140.912 42.3223 141.346 42.627C141.779 42.9316 142.4 43.084 143.209 43.084ZM163.213 27.6152V25.6992H171.316V27.6152C170.543 27.6152 169.957 27.8203 169.559 28.2305C169.16 28.6289 168.785 29.2969 168.434 30.2344C168.012 31.4297 167.572 32.6484 167.115 33.8906C166.658 35.1211 166.201 36.3633 165.744 37.6172C165.498 38.2852 165.205 39.0703 164.865 39.9727C164.525 40.875 164.186 41.7773 163.846 42.6797C163.518 43.5703 163.236 44.3438 163.002 45C162.791 45.5742 162.586 46.1133 162.387 46.6172C162.188 47.1328 161.994 47.6133 161.807 48.0586C161.432 48.9375 161.033 49.6992 160.611 50.3438C160.201 50.9883 159.744 51.5215 159.24 51.9434C158.736 52.3535 158.15 52.6934 157.482 52.9629C156.814 53.209 156.035 53.3848 155.145 53.4902C154.266 53.5957 153.234 53.6484 152.051 53.6484H151.436V51.5566C152.689 51.5566 153.756 51.4043 154.635 51.0996C155.514 50.7949 156.258 50.3613 156.867 49.7988C157.477 49.2363 157.975 48.5625 158.361 47.7773C158.76 46.9922 159.105 46.125 159.398 45.1758L152.912 29.3379C152.654 28.6934 152.326 28.2832 151.928 28.1074C151.529 27.9199 151.043 27.8262 150.469 27.8262V25.6992H160.734V27.6152C160.031 27.6152 159.475 27.709 159.064 27.8965C158.666 28.0723 158.467 28.4238 158.467 28.9512C158.467 29.1504 158.508 29.3906 158.59 29.6719C158.672 29.9414 158.748 30.1641 158.818 30.3398C159.053 30.9023 159.328 31.6055 159.645 32.4492C159.973 33.293 160.283 34.1309 160.576 34.9629C160.881 35.7832 161.121 36.4395 161.297 36.9316C161.59 37.6816 161.818 38.3906 161.982 39.0586C162.158 39.7266 162.27 40.2891 162.316 40.7461C162.363 40.3008 162.475 39.7969 162.65 39.2344C162.826 38.6602 162.979 38.2031 163.107 37.8633L165.48 30.8145C165.574 30.6035 165.656 30.3105 165.727 29.9355C165.797 29.5488 165.832 29.2559 165.832 29.0566C165.832 28.5059 165.604 28.1309 165.146 27.9316C164.689 27.7207 164.045 27.6152 163.213 27.6152Z" fill="#7B8D3B"/>
</svg>
